<?xml version="1.0" encoding="utf-8"?>
<!-- Generator: Adobe Illustrator 16.0.0, SVG Export Plug-In . SVG Version: 6.00 Build 0)  -->
<!DOCTYPE svg PUBLIC "-//W3C//DTD SVG 1.1//EN" "http://www.w3.org/Graphics/SVG/1.1/DTD/svg11.dtd">
<svg version="1.1" id="Слой_1" xmlns="http://www.w3.org/2000/svg" xmlns:xlink="http://www.w3.org/1999/xlink" x="0px" y="0px"
	 width="21px" height="17.313px" viewBox="0 0 21 17.313" enable-background="new 0 0 21 17.313" xml:space="preserve">
<g>
	<path fill-rule="evenodd" clip-rule="evenodd" fill="#FFFFFF" d="M1,7.656h19c0.553,0,1,0.448,1,1c0,0.553-0.447,1-1,1H1
		c-0.553,0-1-0.447-1-1C0,8.104,0.447,7.656,1,7.656z"/>
	<path fill-rule="evenodd" clip-rule="evenodd" fill="#FFFFFF" d="M11.636,15.606l7.313-7.314c0.391-0.39,1.024-0.39,1.415,0
		c0.391,0.391,0.391,1.024,0,1.415l-7.314,7.313c-0.39,0.391-1.023,0.391-1.414,0S11.245,15.997,11.636,15.606z"/>
	<path fill-rule="evenodd" clip-rule="evenodd" fill="#FFFFFF" d="M11.636,1.707l7.313,7.314c0.391,0.39,1.024,0.39,1.415,0
		c0.391-0.391,0.391-1.024,0-1.415L13.05,0.293c-0.39-0.391-1.023-0.391-1.414,0C11.245,0.683,11.245,1.316,11.636,1.707z"/>
</g>
</svg>
