<?xml version="1.0" encoding="utf-8"?>
<!-- Generator: Adobe Illustrator 16.0.0, SVG Export Plug-In . SVG Version: 6.00 Build 0)  -->
<!DOCTYPE svg PUBLIC "-//W3C//DTD SVG 1.1//EN" "http://www.w3.org/Graphics/SVG/1.1/DTD/svg11.dtd">
<svg version="1.1" id="Слой_1" xmlns="http://www.w3.org/2000/svg" xmlns:xlink="http://www.w3.org/1999/xlink" x="0px" y="0px"
	 width="21px" height="17.313px" viewBox="0 0 21 17.313" enable-background="new 0 0 21 17.313" xml:space="preserve">
<g>
	<g>
		<path fill-rule="evenodd" clip-rule="evenodd" fill="#DF5450" d="M20,7.656H3.415l5.949-5.949c0.391-0.391,0.391-1.024,0-1.414
			c-0.39-0.391-1.023-0.391-1.414,0L0.636,7.606c-0.06,0.06-0.093,0.133-0.134,0.202C0.208,7.982,0,8.29,0,8.656
			C0,9.023,0.207,9.33,0.501,9.504c0.042,0.07,0.075,0.143,0.135,0.203l7.313,7.313c0.391,0.391,1.024,0.391,1.414,0
			c0.391-0.391,0.391-1.023,0-1.414l-5.949-5.95H20c0.552,0,1-0.447,1-1C21,8.104,20.552,7.656,20,7.656z"/>
	</g>
</g>
</svg>
