<?xml version="1.0" encoding="utf-8"?>
<!-- Generator: Adobe Illustrator 16.0.0, SVG Export Plug-In . SVG Version: 6.00 Build 0)  -->
<!DOCTYPE svg PUBLIC "-//W3C//DTD SVG 1.1//EN" "http://www.w3.org/Graphics/SVG/1.1/DTD/svg11.dtd">
<svg version="1.1" id="Слой_1" xmlns="http://www.w3.org/2000/svg" xmlns:xlink="http://www.w3.org/1999/xlink" x="0px" y="0px"
	 width="32.998px" height="23.995px" viewBox="0 0 32.998 23.995" enable-background="new 0 0 32.998 23.995" xml:space="preserve">
<g>
	<path fill="#DF5450" d="M27.073,5.866c-0.206-1.916-0.532-3.407-1.05-3.994c-2.134-2.41-17.077-2.587-18.774,0
		c-0.415,0.634-0.706,2.12-0.901,3.997c-0.63,0.07-1.121,0.577-1.121,1.197v2.347c0,0.522,0.346,0.962,0.83,1.134
		c-0.115,3.696-0.021,7.553,0.15,9.471c0,1.48,1.042,1.234,1.042,1.234h0.977v1.599c0,0.634,0.685,1.146,1.528,1.146
		c0.844,0,1.529-0.513,1.529-1.146v-1.599h11.363v1.599c0,0.634,0.684,1.146,1.528,1.146c0.844,0,1.528-0.513,1.528-1.146v-1.599
		h0.321c0,0,1.227,0.161,1.305-0.536c0-1.912,0.126-6.151,0.022-10.152c0.514-0.154,0.89-0.606,0.89-1.15V7.066
		C28.24,6.432,27.726,5.917,27.073,5.866z M10.899,2.216h11.475v1.657H10.899V2.216z M11.063,19.365
		c-0.901,0-1.631-0.697-1.631-1.558c0-0.859,0.73-1.556,1.631-1.556s1.631,0.696,1.631,1.556
		C12.694,18.668,11.964,19.365,11.063,19.365z M22.313,19.365c-0.9,0-1.632-0.697-1.632-1.558c0-0.859,0.73-1.556,1.632-1.556
		c0.9,0,1.631,0.696,1.631,1.556C23.943,18.668,23.213,19.365,22.313,19.365z M24.386,12.552H8.887v-7.76h15.499V12.552z"/>
</g>
</svg>
