<?xml version="1.0" encoding="utf-8"?>
<!-- Generator: Adobe Illustrator 16.0.0, SVG Export Plug-In . SVG Version: 6.00 Build 0)  -->
<!DOCTYPE svg PUBLIC "-//W3C//DTD SVG 1.1//EN" "http://www.w3.org/Graphics/SVG/1.1/DTD/svg11.dtd">
<svg version="1.1" id="Слой_1" xmlns="http://www.w3.org/2000/svg" xmlns:xlink="http://www.w3.org/1999/xlink" x="0px" y="0px"
	 width="25px" height="25px" viewBox="0 0 25 25" enable-background="new 0 0 25 25" xml:space="preserve">
<path fill-rule="evenodd" clip-rule="evenodd" fill="#DF5450" d="M15.738,9.712l-1.822,1.398V5.915h3.644v5.195L15.738,9.712z
	 M6.023,3.517c-0.111,0-0.202-0.089-0.202-0.2s0.091-0.2,0.202-0.2h12.548c0.112,0,0.202,0.09,0.202,0.2s-0.09,0.2-0.202,0.2H6.023z
	 M19.381,4.516c0,0.11-0.09,0.2-0.202,0.2H6.023c-0.111,0-0.202-0.089-0.202-0.2s0.091-0.2,0.202-0.2h13.155
	C19.291,4.316,19.381,4.406,19.381,4.516z M20.393,23.5H4.607C4.271,23.5,4,23.231,4,22.901V6.515c0-0.042,0.005-0.084,0.014-0.124
	C4.018,5.883,4.018,5.084,4,3.917C3.958,1.123,7.035,1.519,7.035,1.519h12.346c0.111,0,0.203,0.09,0.203,0.2s-0.092,0.2-0.203,0.2
	H6.834c-0.02,0-0.035-0.006-0.053-0.01C6.122,1.907,4.404,2.08,4.404,3.917c0,1.626,1.367,1.946,2.131,1.998h6.572v7.194
	l2.637-2.198l2.625,2.198V5.915h2.023c0.336,0,0.607,0.269,0.607,0.6v16.386C21,23.231,20.729,23.5,20.393,23.5z M10.679,12.709
	h-0.81l-4.048,8.592h2.226l0.406-0.998h3.643l0.404,0.998h2.227L10.679,12.709z M10.273,15.707l1.215,2.798H9.06L10.273,15.707z"/>
</svg>
