<?xml version="1.0" encoding="utf-8"?>
<!-- Generator: Adobe Illustrator 16.0.0, SVG Export Plug-In . SVG Version: 6.00 Build 0)  -->
<!DOCTYPE svg PUBLIC "-//W3C//DTD SVG 1.1//EN" "http://www.w3.org/Graphics/SVG/1.1/DTD/svg11.dtd">
<svg version="1.1" id="Слой_1" xmlns="http://www.w3.org/2000/svg" xmlns:xlink="http://www.w3.org/1999/xlink" x="0px" y="0px"
	 width="32.998px" height="23.995px" viewBox="0 0 32.998 23.995" enable-background="new 0 0 32.998 23.995" xml:space="preserve">
<g>
	<path fill="none" d="M34.138,7.806c-0.144,0-0.291,0.02-0.438,0.059l-1.665,0.439l-1.729-4.041
		c-0.49-1.146-1.938-2.077-3.228-2.077H10.894c-1.29,0-2.738,0.932-3.229,2.077L5.939,8.298L4.294,7.863
		C4.147,7.825,4,7.805,3.856,7.805c-0.787,0-1.358,0.577-1.358,1.372v0.942c0,0.928,0.787,1.683,1.754,1.683H4.44l-0.279,0.652
		c-0.455,1.063-0.825,2.864-0.825,4.015v8.029c0,0.928,0.787,1.683,1.753,1.683H7.38c0.967,0,1.753-0.755,1.753-1.683v-2.005h19.705
		v2.005c0,0.928,0.787,1.683,1.754,1.683h2.29c0.967,0,1.753-0.755,1.753-1.683v-8.029c0-1.15-0.369-2.951-0.824-4.015l-0.279-0.652
		h0.211c0.967,0,1.754-0.755,1.754-1.683V9.177C35.496,8.382,34.925,7.806,34.138,7.806z M7.196,10.888l2.616-6.113
		c0.293-0.686,1.164-1.245,1.936-1.245h14.476c0.771,0,1.643,0.56,1.937,1.245l2.615,6.113c0.293,0.685-0.1,1.245-0.871,1.245H8.067
		C7.295,12.133,6.903,11.572,7.196,10.888z M13.036,18.621c0,0.369-0.316,0.673-0.702,0.673H7.365c-0.386,0-0.702-0.304-0.702-0.673
		v-2.289c0-0.37,0.315-0.673,0.702-0.673h4.969c0.386,0,0.702,0.303,0.702,0.673V18.621z M31.26,18.621
		c0,0.369-0.314,0.673-0.701,0.673H25.59c-0.386,0-0.702-0.304-0.702-0.673v-2.289c0-0.37,0.315-0.673,0.702-0.673h4.969
		c0.387,0,0.701,0.303,0.701,0.673V18.621z"/>
</g>
<g>
	<path fill="#DF5450" d="M31.64,5.62c-0.144,0-0.291,0.02-0.438,0.059l-1.665,0.439l-1.729-4.041C27.316,0.932,25.869,0,24.579,0
		H8.396c-1.29,0-2.738,0.932-3.229,2.077L3.441,6.112L1.796,5.678C1.649,5.64,1.502,5.619,1.358,5.619C0.571,5.619,0,6.196,0,6.991
		v0.942c0,0.928,0.787,1.683,1.754,1.683h0.188l-0.279,0.652c-0.455,1.063-0.825,2.864-0.825,4.015v8.029
		c0,0.928,0.787,1.683,1.753,1.683h2.291c0.967,0,1.753-0.755,1.753-1.683v-2.005H26.34v2.005c0,0.928,0.787,1.683,1.754,1.683h2.29
		c0.967,0,1.753-0.755,1.753-1.683v-8.029c0-1.15-0.369-2.951-0.824-4.015l-0.279-0.652h0.211c0.967,0,1.754-0.755,1.754-1.683
		V6.991C32.998,6.196,32.427,5.62,31.64,5.62z M4.698,8.702l2.616-6.113C7.607,1.903,8.479,1.344,9.25,1.344h14.476
		c0.771,0,1.643,0.56,1.937,1.245l2.615,6.113c0.293,0.685-0.1,1.245-0.871,1.245H5.569C4.797,9.947,4.405,9.387,4.698,8.702z
		 M10.538,16.436c0,0.369-0.316,0.673-0.702,0.673H4.867c-0.386,0-0.702-0.304-0.702-0.673v-2.289c0-0.37,0.315-0.673,0.702-0.673
		h4.969c0.386,0,0.702,0.303,0.702,0.673V16.436z M28.762,16.436c0,0.369-0.314,0.673-0.701,0.673h-4.969
		c-0.386,0-0.702-0.304-0.702-0.673v-2.289c0-0.37,0.315-0.673,0.702-0.673h4.969c0.387,0,0.701,0.303,0.701,0.673V16.436z"/>
</g>
</svg>
