<?xml version="1.0" encoding="utf-8"?>
<!-- Generator: Adobe Illustrator 16.0.0, SVG Export Plug-In . SVG Version: 6.00 Build 0)  -->
<!DOCTYPE svg PUBLIC "-//W3C//DTD SVG 1.1//EN" "http://www.w3.org/Graphics/SVG/1.1/DTD/svg11.dtd">
<svg version="1.1" id="Слой_1" xmlns="http://www.w3.org/2000/svg" xmlns:xlink="http://www.w3.org/1999/xlink" x="0px" y="0px"
	 width="22px" height="21px" viewBox="0 0 22 21" enable-background="new 0 0 22 21" xml:space="preserve">
<g>
	<path fill="#FFFFFF" d="M16.794,1.668c1.114,0.691,2.08,1.566,2.86,2.581L22,2v6.544h-6.826l3.189-3.058
		c-1.686-2.318-4.478-3.755-7.465-3.755c-5.019,0-9.101,3.934-9.101,8.769c0,4.834,4.082,8.768,9.101,8.768
		c3.514,0,6.652-1.893,8.189-4.939l1.617,0.758c-0.882,1.746-2.246,3.223-3.948,4.27C15.008,20.431,12.982,21,10.898,21
		C4.889,21,0,16.289,0,10.5C0,4.71,4.889,0,10.898,0C12.998,0,15.037,0.576,16.794,1.668z"/>
</g>
</svg>
