<?xml version="1.0" encoding="utf-8"?>
<!-- Generator: Adobe Illustrator 16.0.0, SVG Export Plug-In . SVG Version: 6.00 Build 0)  -->
<!DOCTYPE svg PUBLIC "-//W3C//DTD SVG 1.1//EN" "http://www.w3.org/Graphics/SVG/1.1/DTD/svg11.dtd">
<svg version="1.1" id="Слой_1" xmlns="http://www.w3.org/2000/svg" xmlns:xlink="http://www.w3.org/1999/xlink" x="0px" y="0px"
	 width="19.012px" height="18.004px" viewBox="0 0 19.012 18.004" enable-background="new 0 0 19.012 18.004" xml:space="preserve">
<g>
	<g>
		<path fill="#DF5450" d="M18.885,0.125c-0.12-0.119-0.296-0.156-0.453-0.097L0.769,6.915c-0.41,0.158-0.7,0.533-0.758,0.976
			c-0.059,0.442,0.127,0.882,0.48,1.144l3.882,2.871L18.156,0.877L5.969,13.088l5.306,3.926c0.338,0.25,0.772,0.324,1.174,0.201
			c0.4-0.125,0.721-0.434,0.863-0.832l5.675-15.797C19.044,0.424,19.004,0.247,18.885,0.125z M3.485,13.042l0.754,4.188
			c0.057,0.312,0.261,0.571,0.545,0.696s0.612,0.1,0.873-0.071c1.049-0.688,2.419-1.603,2.382-1.654l-4.586-3.342L3.485,13.042z"/>
	</g>
</g>
</svg>
