<?xml version="1.0" encoding="utf-8"?>
<!-- Generator: Adobe Illustrator 16.0.0, SVG Export Plug-In . SVG Version: 6.00 Build 0)  -->
<!DOCTYPE svg PUBLIC "-//W3C//DTD SVG 1.1//EN" "http://www.w3.org/Graphics/SVG/1.1/DTD/svg11.dtd">
<svg version="1.1" id="Слой_1" xmlns="http://www.w3.org/2000/svg" xmlns:xlink="http://www.w3.org/1999/xlink" x="0px" y="0px"
	 width="46.398px" height="46.399px" viewBox="0 0 46.398 46.399" enable-background="new 0 0 46.398 46.399" xml:space="preserve">
<g>
	<path fill="#C64645" d="M57.688-15.497L43.098-27.041c-1.466-1.366-3.73-1.366-5.196,0L23.31-15.497H57.688z"/>
	<path fill="#FFFFFF" d="M72.625-15.47H8.381V8.095l20.948,15.957h22.347L72.625,8.095V-15.47z"/>
	<path fill="#494949" d="M44.346-3.996H23.745c-0.772,0-1.398-0.62-1.398-1.398c0-0.77,0.626-1.39,1.398-1.39h20.601
		c0.771,0,1.391,0.62,1.391,1.39C45.736-4.616,45.117-3.996,44.346-3.996L44.346-3.996z M44.346-3.996"/>
	<path fill="#848484" d="M59.757,5.8H23.055c-0.395,0-0.708-0.317-0.708-0.706c0-0.393,0.313-0.709,0.708-0.709h36.702
		c0.389,0,0.702,0.316,0.702,0.709C60.459,5.483,60.146,5.8,59.757,5.8L59.757,5.8z M26.587,5.8"/>
	<path fill="#C64645" d="M8.532,8.211L8.381,8.095V-4.344L0,1.706v0.006L8.532,8.211z M8.532,8.211"/>
	<path fill="#C64645" d="M72.625-3.907V8.095l-0.294,0.219l8.668-6.602V1.706L72.625-3.907z M72.625,0.03"/>
	<path fill="#ED7161" d="M0,46.399h80.999L51.676,24.052H29.329L0,46.399z M0,46.399"/>
	<path fill="#D75A4A" d="M0,46.399V1.712l29.329,22.34L0,46.399z M0,46.399"/>
	<path fill="#E95853" d="M80.999,46.399V1.712l-29.323,22.34L80.999,46.399z M80.999,46.399"/>
	<path fill="#848484" d="M45.792,10.492H23.055c-0.395,0-0.708-0.317-0.708-0.709c0-0.389,0.313-0.706,0.708-0.706h22.737
		c0.389,0,0.701,0.317,0.701,0.706C46.493,10.174,46.181,10.492,45.792,10.492L45.792,10.492z M26.587,10.492"/>
</g>
</svg>
