<?xml version="1.0" encoding="utf-8"?>
<!-- Generator: Adobe Illustrator 16.0.0, SVG Export Plug-In . SVG Version: 6.00 Build 0)  -->
<!DOCTYPE svg PUBLIC "-//W3C//DTD SVG 1.1//EN" "http://www.w3.org/Graphics/SVG/1.1/DTD/svg11.dtd">
<svg version="1.1" id="Слой_1" xmlns="http://www.w3.org/2000/svg" xmlns:xlink="http://www.w3.org/1999/xlink" x="0px" y="0px"
	 width="41px" height="41px" viewBox="0 0 41 41" enable-background="new 0 0 41 41" xml:space="preserve">
<g>
	<path fill="#DF5450" d="M17.951,15.276c0-0.105,0.015-0.335,0.046-0.685c0.033-0.353,0.172-0.72,0.422-1.105
		c0.248-0.385,0.649-0.73,1.208-1.035c0.557-0.305,1.361-0.458,2.411-0.458h2.958v3.066h-2.165c-0.215,0-0.415,0.077-0.597,0.229
		c-0.178,0.149-0.271,0.293-0.271,0.427v1.908h3.03c-0.031,0.373-0.066,0.736-0.105,1.087l-0.121,0.926
		c-0.047,0.313-0.097,0.604-0.145,0.871h-2.682v8.5h-3.992v-8.5h-1.948v-2.883h1.948v-2.348H17.951z"/>
</g>
</svg>
