<?xml version="1.0" encoding="utf-8"?>
<!-- Generator: Adobe Illustrator 16.0.0, SVG Export Plug-In . SVG Version: 6.00 Build 0)  -->
<!DOCTYPE svg PUBLIC "-//W3C//DTD SVG 1.1//EN" "http://www.w3.org/Graphics/SVG/1.1/DTD/svg11.dtd">
<svg version="1.1" id="Слой_1" xmlns="http://www.w3.org/2000/svg" xmlns:xlink="http://www.w3.org/1999/xlink" x="0px" y="0px"
	 width="38px" height="38px" viewBox="0 0 38 38" enable-background="new 0 0 38 38" xml:space="preserve">
<g>
	<g>
		<path fill="#353535" d="M13.828,19l9.088-9.088c0.447-0.448,0.495-1.128,0.104-1.519c-0.391-0.39-1.069-0.344-1.518,0.104
			l-9.691,9.691c-0.021,0.021-0.03,0.048-0.049,0.07c-0.017,0.014-0.039,0.019-0.055,0.034c-0.166,0.166-0.236,0.387-0.247,0.617
			c-0.004,0.03-0.01,0.06-0.012,0.09c0.001,0.03,0.008,0.059,0.012,0.09c0.011,0.23,0.081,0.451,0.247,0.617
			c0.016,0.017,0.039,0.021,0.055,0.035c0.02,0.022,0.028,0.048,0.049,0.069l9.691,9.69c0.448,0.448,1.127,0.495,1.518,0.104
			c0.392-0.392,0.344-1.07-0.104-1.52L13.828,19z"/>
	</g>
</g>
</svg>
