<?xml version="1.0" encoding="utf-8"?>
<!-- Generator: Adobe Illustrator 16.0.0, SVG Export Plug-In . SVG Version: 6.00 Build 0)  -->
<!DOCTYPE svg PUBLIC "-//W3C//DTD SVG 1.1//EN" "http://www.w3.org/Graphics/SVG/1.1/DTD/svg11.dtd">
<svg version="1.1" id="Слой_1" xmlns="http://www.w3.org/2000/svg" xmlns:xlink="http://www.w3.org/1999/xlink" x="0px" y="0px"
	 width="38px" height="38px" viewBox="0 0 38 38" enable-background="new 0 0 38 38" xml:space="preserve">
<g>
	<g>
		<path fill="#353535" d="M26.553,19c0-0.03-0.008-0.059-0.012-0.09c-0.012-0.23-0.081-0.451-0.247-0.617
			c-0.017-0.016-0.039-0.02-0.056-0.035c-0.02-0.022-0.027-0.048-0.049-0.069l-9.69-9.691c-0.448-0.448-1.127-0.495-1.518-0.104
			s-0.344,1.07,0.104,1.519L24.172,19l-9.088,9.088c-0.448,0.448-0.495,1.128-0.104,1.52c0.391,0.39,1.07,0.344,1.518-0.104
			l9.691-9.69c0.021-0.021,0.029-0.049,0.049-0.07c0.017-0.014,0.039-0.02,0.055-0.034c0.166-0.166,0.236-0.387,0.247-0.617
			C26.545,19.06,26.551,19.03,26.553,19z"/>
	</g>
</g>
</svg>
