<?xml version="1.0" encoding="utf-8"?>
<!-- Generator: Adobe Illustrator 16.0.0, SVG Export Plug-In . SVG Version: 6.00 Build 0)  -->
<!DOCTYPE svg PUBLIC "-//W3C//DTD SVG 1.1//EN" "http://www.w3.org/Graphics/SVG/1.1/DTD/svg11.dtd">
<svg version="1.1" id="Слой_1" xmlns="http://www.w3.org/2000/svg" xmlns:xlink="http://www.w3.org/1999/xlink" x="0px" y="0px"
	 width="41px" height="41px" viewBox="0 0 41 41" enable-background="new 0 0 41 41" xml:space="preserve">
<path fill="#FFFFFF" d="M32.602,17.969l-8.086,1.407l-0.236-4.081l-2.318,3.44L15.67,13.64l1.262,7.965l-4.134,0.317l3.437,2.224
	l-5.282,6.322l8.085-1.408l0.238,4.082l2.317-3.442l6.291,5.097l-1.262-7.966l4.134-0.317l-3.438-2.223L32.602,17.969z
	 M14.804,28.244l2.671-3.198L20.423,25L14.804,28.244z M25.709,31.031l-3.184-2.578l0.014-2.912L25.709,31.031z M21.014,22.896
	l-3.171-5.491l3.183,2.577L21.014,22.896z M23.129,23.438l5.619-3.244l-2.672,3.199L23.129,23.438z"/>
<g>
	<path fill="#FFFFFF" d="M14.148,9.263l1.157-0.211c0.142,0.633,0.106,1.177-0.104,1.632s-0.588,0.827-1.131,1.115
		c-0.671,0.356-1.345,0.42-2.021,0.191c-0.677-0.229-1.226-0.742-1.648-1.538C9.955,9.61,9.825,8.841,10.012,8.144
		c0.187-0.697,0.635-1.233,1.344-1.609c0.619-0.329,1.219-0.413,1.8-0.252c0.344,0.094,0.682,0.313,1.011,0.657l-0.882,0.778
		c-0.199-0.23-0.434-0.372-0.705-0.422c-0.27-0.051-0.541-0.004-0.812,0.14c-0.375,0.199-0.608,0.495-0.698,0.888
		c-0.091,0.395,0.023,0.892,0.344,1.494c0.339,0.639,0.695,1.033,1.07,1.183c0.373,0.149,0.745,0.127,1.112-0.068
		c0.271-0.145,0.46-0.354,0.563-0.631C14.262,10.025,14.26,9.679,14.148,9.263z"/>
</g>
</svg>
