<?xml version="1.0" encoding="utf-8"?>
<!-- Generator: Adobe Illustrator 16.0.0, SVG Export Plug-In . SVG Version: 6.00 Build 0)  -->
<!DOCTYPE svg PUBLIC "-//W3C//DTD SVG 1.1//EN" "http://www.w3.org/Graphics/SVG/1.1/DTD/svg11.dtd">
<svg version="1.1" id="Слой_1" xmlns="http://www.w3.org/2000/svg" xmlns:xlink="http://www.w3.org/1999/xlink" x="0px" y="0px"
	 width="41px" height="41px" viewBox="0 0 41 41" enable-background="new 0 0 41 41" xml:space="preserve">
<path fill="#DF5450" d="M28.51,14.873v1.157h-2.316v2.313h-1.157V16.03h-2.313v-1.157h2.313V12.56h1.157v2.313H28.51z
	 M21.197,13.504h-1.316c0.93,0.532,1.424,1.628,1.424,2.836c0,1.108-0.615,2.001-1.483,2.68c-0.848,0.662-1.009,0.938-1.009,1.501
	c0,0.479,1.013,1.195,1.478,1.545c1.619,1.213,1.949,1.979,1.949,3.496c0,1.896-2.044,3.779-5.368,3.779
	c-2.916,0-5.376-1.186-5.376-3.08c0-1.925,2.04-3.929,4.956-3.929c0.318,0,0.609-0.011,0.91-0.011
	c-0.398-0.387-0.72-0.721-0.72-1.307c0-0.348,0.11-0.681,0.266-0.979c-0.158,0.012-0.32,0.021-0.487,0.021
	c-2.395,0-3.79-1.681-3.79-3.79c0-2.064,2.123-3.94,4.669-3.94c1.313,0,5.019,0,5.019,0L21.197,13.504z M18.419,23.134
	c-0.396-0.129-0.836-0.204-1.305-0.21c-2.016-0.021-3.723,1.271-3.723,2.773c0,1.531,1.455,2.805,3.47,2.805
	c2.833,0,3.82-1.195,3.82-2.729c0-0.186-0.023-0.363-0.064-0.539C20.395,24.368,19.515,23.895,18.419,23.134z M19.289,16.415
	c-0.232-1.774-1.389-3.23-2.741-3.272c-1.352-0.039-2.261,1.318-2.024,3.094c0.232,1.774,1.517,3.015,2.869,3.056
	C18.743,19.332,19.52,18.19,19.289,16.415z"/>
</svg>
