<?xml version="1.0" encoding="utf-8"?>
<!-- Generator: Adobe Illustrator 16.0.0, SVG Export Plug-In . SVG Version: 6.00 Build 0)  -->
<!DOCTYPE svg PUBLIC "-//W3C//DTD SVG 1.1//EN" "http://www.w3.org/Graphics/SVG/1.1/DTD/svg11.dtd">
<svg version="1.1" id="Слой_1" xmlns="http://www.w3.org/2000/svg" xmlns:xlink="http://www.w3.org/1999/xlink" x="0px" y="0px"
	 width="250px" height="129.195px" viewBox="0 0 250 129.195" enable-background="new 0 0 250 129.195" xml:space="preserve">
<path fill="#FFFFFF" d="M123.705,2.304l-0.398,125.645h89.128c0,0,21.464,2.149,26.43-2.366c4.968-4.516,7.466-6.884,7.466-18.851
	s0-86.926,0-86.926s0.438-11.8-7.69-15.187C230.513,1.234,123.705,2.304,123.705,2.304z"/>
<path fill="#E41A1B" d="M111.504,129.189h-93.82C7.957,129.189,0,121.231,0,111.504V17.686C0,7.971,7.937,0.021,17.646,0h212.901
	c5.328,0.023,10.167,2.209,13.678,5.72c3.494,3.492,5.673,8.297,5.717,13.593v90.562c-0.044,5.298-2.223,10.102-5.717,13.593
	c-3.528,3.531-8.4,5.722-13.761,5.722h-90.231c-19.864,0,2.131-0.015-8.626-0.01l-2.418,0.005v0.012
	C123.45,129.193,117.585,129.189,111.504,129.189L111.504,129.189z M129.189,4.945v12.741v93.818v12.756l2.417-0.001
	c16.421-0.007-5.391-0.014,8.626-0.014h90.233c3.991,0,7.628-1.634,10.265-4.271c2.633-2.636,4.271-6.269,4.271-10.265V19.48
	c0-3.995-1.639-7.628-4.271-10.264c-2.637-2.637-6.273-4.272-10.265-4.272H129.189z"/>
<path fill="#FFFFFF" d="M37.538,81.811c-0.338,0-0.66-0.157-0.869-0.425L17.777,57.121V80.71c0,0.608-0.495,1.101-1.104,1.101
	h-4.691c-0.608,0-1.102-0.492-1.102-1.101V46.294c0-0.608,0.495-1.101,1.102-1.101h3.953c0.338,0,0.655,0.154,0.865,0.419
	l17.588,22.287V46.294c0-0.608,0.491-1.101,1.1-1.101h4.691c0.607,0,1.102,0.493,1.102,1.101V80.71c0,0.608-0.494,1.101-1.102,1.101
	H37.538L37.538,81.811z M53.977,75.176h7.521c3.444,0,6.32-1.081,8.313-3.13c2.112-2.165,3.22-5.329,3.127-8.91
	c-0.151-5.518-3.237-11.414-11.44-11.414h-7.521V75.176L53.977,75.176z M48.234,81.811c-0.607,0-1.102-0.492-1.102-1.101V46.294
	c0-0.608,0.495-1.101,1.102-1.101h13.263c13.265,0,18.139,9.692,18.283,17.996c0.088,5.299-1.742,10.257-5.026,13.597
	c-3.231,3.287-7.817,5.024-13.257,5.024H48.234L48.234,81.811z M97.233,81.969c-0.445,0-0.847-0.271-1.018-0.684l-14.29-34.569
	c-0.142-0.34-0.104-0.729,0.102-1.034c0.203-0.303,0.546-0.489,0.914-0.489h5.328c0.454,0,0.865,0.28,1.029,0.705l10.75,27.797
	l10.798-27.798c0.166-0.426,0.573-0.703,1.03-0.703h5.328c0.368,0,0.712,0.186,0.916,0.489c0.204,0.305,0.243,0.694,0.103,1.033
	l-14.291,34.57c-0.17,0.412-0.57,0.683-1.017,0.683L97.233,81.969L97.233,81.969z"/>
<path fill="#000007" d="M161.65,63.716h10.498c4.624,0,6.267-3.166,6.267-5.875c0-2.926-1.938-5.878-6.267-5.878H161.65V63.716
	L161.65,63.716z M179.439,82.154c-0.32,0-0.621-0.137-0.83-0.373l-10.326-11.847h-6.633v11.121c0,0.607-0.495,1.1-1.103,1.1h-4.693
	c-0.606,0-1.103-0.492-1.103-1.1V46.641c0-0.294,0.116-0.573,0.323-0.779c0.207-0.206,0.488-0.323,0.779-0.323
	c0,0,3.13,0.004,4.698,0.01c1.93,0.008,3.865,0.013,5.797,0.013c1.934,0,3.865-0.005,5.8-0.024
	c9.098,0.054,13.165,6.139,13.165,12.145c0,2.897-0.904,9.826-9.246,11.518l9.864,11.121c0.287,0.324,0.359,0.789,0.18,1.183
	c-0.179,0.394-0.571,0.649-1.005,0.649L179.439,82.154L179.439,82.154z M207.83,82.938c-7.853,0-16.245-4.297-16.245-16.351V46.746
	c0-0.61,0.495-1.102,1.102-1.102h4.641c0.607,0,1.101,0.492,1.101,1.102V66.59c0,6.313,3.535,10.083,9.456,10.083
	c5.676,0,8.933-3.673,8.933-10.083V46.746c0-0.61,0.494-1.102,1.104-1.102h4.638c0.608,0,1.103,0.492,1.103,1.102V66.59
	C223.659,76.676,217.594,82.938,207.83,82.938z"/>
<path fill="#FFFFFF" d="M10.896,96.354h1.768v-3.059h2.856v3.059h1.768v-7.317h-1.768v2.77h-2.856v-2.77h-1.768V96.354
	L10.896,96.354z M19.447,96.354h5.107v-1.509h-3.402v-1.521h3.04v-1.413h-3.04v-1.377h3.215v-1.498h-4.92V96.354L19.447,96.354z
	 M25.744,97.919h1.551v-1.564h4.878v1.564h1.553v-3.071h-0.808v-5.81h-5.541v1.863c0,1.963-0.341,3.142-0.991,3.946h-0.643V97.919
	L25.744,97.919z M28.298,94.846c0.403-0.63,0.787-1.775,0.787-3.721v-0.59h2.066v4.311H28.298L28.298,94.846z M35.339,96.354h2.917
	c1.396,0,2.79-0.535,2.79-2.129c0-0.96-0.662-1.561-1.5-1.705V92.5c0.714-0.238,1.199-0.775,1.199-1.582
	c0-1.479-1.355-1.881-2.49-1.881h-2.918v7.317H35.339z M37.046,94.932v-1.677h0.98c0.757,0,1.252,0.196,1.252,0.807
	c0,0.716-0.683,0.87-1.243,0.87H37.046L37.046,94.932z M37.046,91.953v-1.511h0.867c0.746,0,1.127,0.217,1.127,0.715
	c0,0.517-0.382,0.796-1.044,0.796H37.046L37.046,91.953z M42.868,96.354h1.892l2.79-4.702h0.032v4.702h1.747v-7.317h-1.861
	l-2.813,4.817h-0.041v-4.817h-1.746V96.354L42.868,96.354z M50.549,96.354h2.203l2.514-3.429h0.01v3.429h1.768v-3.429h0.021
	l2.492,3.429h2.222l-2.999-3.979l2.832-3.338h-2.127l-2.431,3.061h-0.021v-3.061h-1.756v3.061h-0.009l-2.43-3.061h-2.12l2.813,3.338
	L50.549,96.354L50.549,96.354z M62.999,96.354h1.891l2.791-4.702h0.031v4.702h1.748v-7.317h-1.86l-2.812,4.817h-0.043v-4.817h-1.746
	L62.999,96.354L62.999,96.354z M71.623,96.354h1.662l-0.041-5.177h0.032l1.85,5.177h1.241l1.901-5.177h0.033l-0.042,5.177h1.725
	v-7.317h-2.552l-1.594,4.693h-0.041l-1.666-4.693H71.62v7.317H71.623z M85.787,96.553c2.295,0,3.991-1.57,3.991-3.888
	c0-2.349-1.694-3.824-3.991-3.824c-2.284,0-3.981,1.476-3.981,3.824C81.806,94.982,83.503,96.553,85.787,96.553L85.787,96.553z
	 M85.787,94.941c-1.23,0-2.089-0.954-2.089-2.274c0-1.282,0.847-2.232,2.089-2.232c1.241,0,2.099,0.95,2.099,2.232
	C87.885,93.987,87.017,94.941,85.787,94.941L85.787,94.941z M95.196,96.553c1.228,0,2.201-0.465,2.842-1.209l-1.232-1.159
	c-0.31,0.436-0.855,0.745-1.549,0.745c-1.221,0-2.079-0.913-2.079-2.245c0-1.292,0.879-2.242,2.11-2.242
	c0.558,0,1.147,0.217,1.477,0.671l1.2-1.199c-0.611-0.702-1.715-1.073-2.741-1.073c-2.232,0-3.969,1.499-3.969,3.846
	C91.256,94.982,92.942,96.553,95.196,96.553L95.196,96.553z M101.016,96.354h1.768v-5.809h2.068v-1.509h-5.905v1.509h2.067v5.809
	H101.016z M106.311,96.354h2.709c1.519,0,2.844-0.679,2.844-2.323c0-1.686-1.313-2.307-2.854-2.307h-0.93v-2.688h-1.769V96.354
	L106.311,96.354z M108.081,94.951v-1.854h0.794c0.744,0,1.231,0.28,1.231,0.92c0,0.663-0.517,0.934-1.231,0.934H108.081z"/>
<path fill="#FFFFFF" d="M129.19,81.593h-5.471c-1.076,0-1.957-0.88-1.957-1.957V69.248c0-1.074,0.88-1.955,1.957-1.955h5.471V81.593
	z"/>
<path fill="#E41A1B" d="M129.19,81.593h5.471c1.077,0,1.959-0.88,1.959-1.957V69.248c0-1.074-0.879-1.955-1.959-1.955h-5.471V81.593
	z"/>
</svg>
