<?xml version="1.0" encoding="utf-8"?>
<!-- Generator: Adobe Illustrator 16.0.0, SVG Export Plug-In . SVG Version: 6.00 Build 0)  -->
<!DOCTYPE svg PUBLIC "-//W3C//DTD SVG 1.1//EN" "http://www.w3.org/Graphics/SVG/1.1/DTD/svg11.dtd">
<svg version="1.1" id="Слой_1" xmlns="http://www.w3.org/2000/svg" xmlns:xlink="http://www.w3.org/1999/xlink" x="0px" y="0px"
	 width="41px" height="41px" viewBox="0 0 41 41" enable-background="new 0 0 41 41" xml:space="preserve">
<g>
	<path fill="#DF5450" d="M23.936,11.999h-6.872c-2.793,0-5.064,2.272-5.064,5.065v6.872C12,26.729,14.271,29,17.064,29h6.872
		c2.793,0,5.066-2.271,5.066-5.064v-6.872C29.002,14.271,26.729,11.999,23.936,11.999L23.936,11.999z M27.291,23.938
		c0,1.853-1.502,3.354-3.355,3.354h-6.872c-1.853,0-3.354-1.502-3.354-3.354v-6.873c0-1.853,1.502-3.354,3.354-3.354h6.872
		c1.854,0,3.355,1.502,3.355,3.354V23.938z"/>
	<path fill="#DF5450" d="M20.5,16.104c-2.425,0-4.397,1.972-4.397,4.396s1.973,4.396,4.397,4.396s4.396-1.973,4.396-4.396
		S22.925,16.104,20.5,16.104L20.5,16.104z M20.5,23.188c-1.484,0-2.688-1.203-2.688-2.688c0-1.483,1.203-2.687,2.688-2.687
		c1.484,0,2.688,1.203,2.688,2.687C23.188,21.984,21.984,23.188,20.5,23.188L20.5,23.188z"/>
	<path fill="#DF5450" d="M25.959,16.136c0,0.582-0.471,1.054-1.053,1.054c-0.581,0-1.055-0.472-1.055-1.054s0.474-1.054,1.055-1.054
		C25.488,15.082,25.959,15.554,25.959,16.136L25.959,16.136z"/>
</g>
</svg>
