<?xml version="1.0" encoding="utf-8"?>
<!-- Generator: Adobe Illustrator 16.0.0, SVG Export Plug-In . SVG Version: 6.00 Build 0)  -->
<!DOCTYPE svg PUBLIC "-//W3C//DTD SVG 1.1//EN" "http://www.w3.org/Graphics/SVG/1.1/DTD/svg11.dtd">
<svg version="1.1" id="Слой_1" xmlns="http://www.w3.org/2000/svg" xmlns:xlink="http://www.w3.org/1999/xlink" x="0px" y="0px"
	 width="25px" height="25px" viewBox="0 0 25 25" enable-background="new 0 0 25 25" xml:space="preserve">
<path fill-rule="evenodd" clip-rule="evenodd" fill="#DF5450" d="M23.179,24h-9.31c-0.453,0-0.822-0.368-0.822-0.822v-9.309
	c0-0.454,0.369-0.822,0.822-0.822h9.31c0.454,0,0.821,0.368,0.821,0.822v9.309C24,23.632,23.633,24,23.179,24z M20.988,16.881
	c-0.018-1.01-0.479-1.917-1.917-1.917s-3.286,0-3.286,0v6.845h3.561c0,0,1.914,0.063,1.916-2.189
	c0.001-1.204-0.821-1.369-0.821-1.369S21.006,17.891,20.988,16.881z M19.291,20.44h-2.137v-1.369h2.137
	c0.332,0,0.602,0.307,0.602,0.686C19.893,20.133,19.623,20.44,19.291,20.44z M18.935,17.702h-1.78v-1.368h1.78
	c0.378,0,0.685,0.306,0.685,0.685C19.619,17.396,19.313,17.702,18.935,17.702z M17.154,11.952H7.846
	c-0.454,0-0.822-0.368-0.822-0.821v-9.31C7.023,1.368,7.392,1,7.846,1h9.309c0.454,0,0.822,0.368,0.822,0.821v9.31
	C17.977,11.584,17.608,11.952,17.154,11.952z M13.047,2.917h-1.094L8.94,9.762h1.917l0.547-1.369h2.191l0.547,1.369h1.917
	L13.047,2.917z M12.5,5.381l0.547,1.643h-1.094L12.5,5.381z M11.953,13.869v9.309c0,0.454-0.369,0.822-0.822,0.822h-9.31
	C1.367,24,1,23.632,1,23.178v-9.309c0-0.454,0.367-0.822,0.821-0.822h9.31C11.584,13.047,11.953,13.415,11.953,13.869z
	 M8.666,16.333v-1.369H3.738v6.845h3.559c0,0,1.918-0.021,1.918-2.189c0-2.146-1.918-2.191-1.918-2.191H5.107v-1.095H8.666z
	 M7.846,19.62c0,0.453-0.368,0.82-0.822,0.82H5.107v-1.643h1.916C7.478,18.797,7.846,19.165,7.846,19.62z"/>
</svg>
