<?xml version="1.0" encoding="utf-8"?>
<!-- Generator: Adobe Illustrator 16.0.0, SVG Export Plug-In . SVG Version: 6.00 Build 0)  -->
<!DOCTYPE svg PUBLIC "-//W3C//DTD SVG 1.1//EN" "http://www.w3.org/Graphics/SVG/1.1/DTD/svg11.dtd">
<svg version="1.1" id="Слой_1" xmlns="http://www.w3.org/2000/svg" xmlns:xlink="http://www.w3.org/1999/xlink" x="0px" y="0px"
	 width="86.166px" height="79.855px" viewBox="0 -0.641 86.166 79.855" enable-background="new 0 -0.641 86.166 79.855"
	 xml:space="preserve">
<path fill="#858585" d="M86.166,31.677L45.848,0.449c-1.56-1.453-3.967-1.453-5.527,0L0,31.677l0,9.34h86.166V31.677z"/>
<path fill="#FFFFFF" d="M77.258,13.398H8.915v25.069L31.2,55.443h23.771l22.286-16.976V13.398z"/>
<path fill="#494949" d="M47.176,25.604H25.26c-0.82,0-1.486-0.66-1.486-1.487c0-0.819,0.666-1.479,1.486-1.479h21.916
	c0.819,0,1.479,0.66,1.479,1.479C48.653,24.945,47.995,25.604,47.176,25.604L47.176,25.604z"/>
<path fill="#848484" d="M63.567,36.025H24.526c-0.421,0-0.753-0.337-0.753-0.751c0-0.417,0.332-0.754,0.753-0.754h39.042
	c0.416,0,0.748,0.337,0.748,0.754C64.315,35.688,63.983,36.025,63.567,36.025L63.567,36.025z"/>
<path fill="#A7A7A7" d="M0,79.214h86.166L54.972,55.443H31.2L0,79.214z"/>
<path fill="#909090" d="M0,79.214V31.677l31.2,23.766L0,79.214z"/>
<path fill="#9E9E9E" d="M86.166,79.214V31.677L54.972,55.443L86.166,79.214z"/>
<path fill="#848484" d="M48.713,41.017H24.526c-0.421,0-0.753-0.337-0.753-0.754c0-0.414,0.332-0.751,0.753-0.751h24.187
	c0.415,0,0.746,0.337,0.746,0.751C49.459,40.679,49.128,41.017,48.713,41.017L48.713,41.017z"/>
</svg>
