<?xml version="1.0" encoding="utf-8"?>
<!-- Generator: Adobe Illustrator 16.0.0, SVG Export Plug-In . SVG Version: 6.00 Build 0)  -->
<!DOCTYPE svg PUBLIC "-//W3C//DTD SVG 1.1//EN" "http://www.w3.org/Graphics/SVG/1.1/DTD/svg11.dtd">
<svg version="1.1" id="Слой_1" xmlns="http://www.w3.org/2000/svg" xmlns:xlink="http://www.w3.org/1999/xlink" x="0px" y="0px"
	 width="10.008px" height="14.909px" viewBox="0 0 10.008 14.909" enable-background="new 0 0 10.008 14.909" xml:space="preserve">
<g>
	<path fill-rule="evenodd" clip-rule="evenodd" fill="#FF1314" d="M5.005,7.453c-1.433,0-2.594-1.143-2.594-2.556
		s1.161-2.556,2.594-2.556s2.594,1.144,2.594,2.556S6.438,7.453,5.005,7.453 M5.005,0C2.244,0,0,2.211,0,4.93
		c0,1.097,0.708,2.883,2.168,5.459c1.034,1.824,2.049,3.344,2.093,3.408l0.744,1.111l0.742-1.111
		c0.046-0.064,1.061-1.584,2.093-3.408c1.462-2.576,2.169-4.362,2.169-5.459C10.008,2.211,7.764,0,5.005,0"/>
</g>
</svg>
