<?xml version="1.0" encoding="utf-8"?>
<!-- Generator: Adobe Illustrator 16.0.0, SVG Export Plug-In . SVG Version: 6.00 Build 0)  -->
<!DOCTYPE svg PUBLIC "-//W3C//DTD SVG 1.1//EN" "http://www.w3.org/Graphics/SVG/1.1/DTD/svg11.dtd">
<svg version="1.1" id="Слой_1" xmlns="http://www.w3.org/2000/svg" xmlns:xlink="http://www.w3.org/1999/xlink" x="0px" y="0px"
	 width="25px" height="25px" viewBox="0 0 25 25" enable-background="new 0 0 25 25" xml:space="preserve">
<path fill-rule="evenodd" clip-rule="evenodd" fill="#DF5450" d="M18.49,15.15v3.242c0,0.231-0.061,0.602,0.338,0.808
	c1.445,0.579,3.672,0.688,3.672,2.631c0,1.182-1.023,2.373-2.232,2.14c-1.492-0.288-2.213-0.77-4.457-1.771
	c-0.387-0.151-0.809-0.135-0.988-0.106c-0.715,0.112-1.499,0.155-2.322,0.155c-0.737,0-1.443-0.035-2.096-0.122
	c-0.217-0.029-0.567-0.138-1.062,0.078c-2.299,0.998-3.095,1.48-4.61,1.766C3.522,24.199,2.5,23.012,2.5,21.831
	c0-1.943,2.078-1.987,3.525-2.56c0.519-0.308,0.483-0.641,0.483-0.88v-3.248c-1.167-0.226-3.734-0.303-3.734-2.454
	c0-1.093,0.93-1.495,2.063-1.382c0.901,0.089,1.294,0.587,2.853,0.125c0.427-0.126,0.701-0.575,0.417-0.922
	C7.342,9.573,6.949,8.384,6.885,7.094c-0.026-0.51-0.186-0.629-0.289-0.668C5.524,6.017,4.765,5,4.765,3.809
	C4.765,2.258,6.053,1,7.642,1c0.791,0,1.507,0.312,2.027,0.817c0.118,0.114,0.28,0.35,0.518,0.28
	c0.755-0.369,1.411-0.485,2.313-0.485c0.84,0,1.438,0.096,2.154,0.418c0.201,0.084,0.284-0.022,0.33-0.074
	C15.512,1.37,16.284,1,17.146,1c1.589,0,2.876,1.257,2.876,2.808c0,1.146-0.689,2.159-1.709,2.567
	c-0.199,0.08-0.197,0.506-0.197,0.718c0,1.301-0.447,2.51-1.24,3.437c-0.311,0.363,0.231,0.821,0.426,0.891
	c1.531,0.552,1.957-0.026,2.861-0.114c1.133-0.11,2.063,0.29,2.063,1.382C22.225,14.901,19.657,14.921,18.49,15.15z M9.135,17.917
	c0,1.781,1.506,2.582,3.365,2.582s3.365-0.801,3.365-2.582v-1.518c0-1.781-1.507-3.227-3.365-3.227s-3.365,1.445-3.365,3.227V17.917
	z M9.418,5.167c-0.549,0-0.994,0.427-0.994,0.954c0,0.526,0.445,0.953,0.994,0.953s0.995-0.427,0.995-0.953
	C10.413,5.594,9.967,5.167,9.418,5.167z M12.432,7.481c-1.538,0-2.785,0.938-2.785,2.096s1.247,2.096,2.785,2.096
	c1.539,0,2.786-0.938,2.786-2.096S13.971,7.481,12.432,7.481z M15.094,5.167c-0.549,0-0.994,0.427-0.994,0.954
	c0,0.526,0.445,0.953,0.994,0.953s0.994-0.427,0.994-0.953C16.088,5.594,15.643,5.167,15.094,5.167z M12.432,9.577
	c-0.457,0-0.828-0.355-0.828-0.794s0.371-0.794,0.828-0.794c0.458,0,0.829,0.355,0.829,0.794S12.89,9.577,12.432,9.577z"/>
</svg>
