<?xml version="1.0" encoding="utf-8"?>
<!-- Generator: Adobe Illustrator 16.0.0, SVG Export Plug-In . SVG Version: 6.00 Build 0)  -->
<!DOCTYPE svg PUBLIC "-//W3C//DTD SVG 1.1//EN" "http://www.w3.org/Graphics/SVG/1.1/DTD/svg11.dtd">
<svg version="1.1" id="Слой_1" xmlns="http://www.w3.org/2000/svg" xmlns:xlink="http://www.w3.org/1999/xlink" x="0px" y="0px"
	 width="41px" height="41px" viewBox="0 0 41 41" enable-background="new 0 0 41 41" xml:space="preserve">
<path fill="#DF5450" d="M22.299,24.352c0.907-0.201,1.783-0.559,2.592-1.057c0.604-0.381,0.793-1.17,0.408-1.771
	c-0.386-0.603-1.193-0.78-1.799-0.401c-1.828,1.131-4.178,1.131-5.999,0c-0.612-0.378-1.42-0.201-1.798,0.401
	c-0.385,0.603-0.204,1.392,0.408,1.771c0.801,0.498,1.677,0.855,2.584,1.057l-2.486,2.455c-0.514,0.498-0.514,1.316,0,1.816
	c0.25,0.252,0.589,0.379,0.922,0.379s0.665-0.127,0.922-0.379l2.448-2.412l2.448,2.412c0.248,0.252,0.58,0.371,0.914,0.379h0.007
	c0.333-0.008,0.665-0.127,0.922-0.379c0.507-0.5,0.507-1.318,0-1.816L22.299,24.352z M20.501,14.572
	c1.013,0,1.845,0.811,1.845,1.815c0,0.998-0.832,1.816-1.845,1.816c-1.02,0-1.844-0.818-1.844-1.816
	C18.657,15.383,19.481,14.572,20.501,14.572L20.501,14.572z M20.508,11.997h-0.022c-2.448,0.007-4.442,1.973-4.442,4.391
	c0,2.419,2.002,4.384,4.458,4.384c2.455,0,4.45-1.965,4.45-4.384C24.951,13.97,22.964,12.004,20.508,11.997L20.508,11.997z"/>
</svg>
