<?xml version="1.0" encoding="utf-8"?>
<!-- Generator: Adobe Illustrator 16.0.0, SVG Export Plug-In . SVG Version: 6.00 Build 0)  -->
<!DOCTYPE svg PUBLIC "-//W3C//DTD SVG 1.1//EN" "http://www.w3.org/Graphics/SVG/1.1/DTD/svg11.dtd">
<svg version="1.1" id="Слой_1" xmlns="http://www.w3.org/2000/svg" xmlns:xlink="http://www.w3.org/1999/xlink" x="0px" y="0px"
	 width="25px" height="25px" viewBox="0 0 25 25" enable-background="new 0 0 25 25" xml:space="preserve">
<g>
	<path fill="#DF5450" d="M6.975,20.903c-0.547,0-0.82-0.293-0.82-0.879V4.977c0-0.586,0.273-0.879,0.82-0.879h4.383
		c2.813,0,4.764,0.457,5.854,1.371s1.635,2.211,1.635,3.891s-0.545,2.977-1.635,3.891s-3.041,1.371-5.854,1.371H9.576v5.403
		c0,0.586-0.273,0.879-0.82,0.879H6.975z M9.576,11.762h1.77c1.563,0,2.625-0.186,3.188-0.557s0.844-0.986,0.844-1.846
		s-0.281-1.475-0.844-1.846s-1.625-0.557-3.188-0.557h-1.77V11.762z"/>
</g>
</svg>
