<?xml version="1.0" encoding="utf-8"?>
<!-- Generator: Adobe Illustrator 16.0.0, SVG Export Plug-In . SVG Version: 6.00 Build 0)  -->
<!DOCTYPE svg PUBLIC "-//W3C//DTD SVG 1.1//EN" "http://www.w3.org/Graphics/SVG/1.1/DTD/svg11.dtd">
<svg version="1.1" id="Слой_1" xmlns="http://www.w3.org/2000/svg" xmlns:xlink="http://www.w3.org/1999/xlink" x="0px" y="0px"
	 width="11.012px" height="10.927px" viewBox="0 0 11.012 10.927" enable-background="new 0 0 11.012 10.927" xml:space="preserve">
<g>
	<path fill-rule="evenodd" clip-rule="evenodd" fill="#FF1314" d="M11.007,8.625c0.022,0.176-0.032,0.33-0.164,0.462l-1.55,1.527
		c-0.07,0.078-0.16,0.143-0.273,0.198c-0.113,0.053-0.226,0.087-0.333,0.104c-0.008,0-0.03,0.002-0.07,0.005
		c-0.038,0.003-0.088,0.005-0.15,0.005c-0.149,0-0.386-0.024-0.72-0.075c-0.329-0.05-0.733-0.173-1.21-0.371
		c-0.478-0.196-1.02-0.493-1.626-0.886c-0.606-0.394-1.25-0.933-1.937-1.62C2.431,7.443,1.979,6.935,1.621,6.449
		C1.265,5.961,0.978,5.513,0.759,5.101c-0.216-0.415-0.38-0.787-0.491-1.124c-0.107-0.336-0.183-0.625-0.22-0.869
		C0.015,2.91,0,2.744,0,2.612V2.603c0-0.022,0-0.047,0-0.067c0.01-0.14,0.013-0.214,0.013-0.232c0.016-0.108,0.051-0.218,0.103-0.33
		c0.057-0.112,0.122-0.203,0.201-0.272l1.549-1.538C1.974,0.054,2.101,0,2.24,0C2.34,0,2.431,0.027,2.507,0.086
		c0.079,0.059,0.145,0.13,0.197,0.213l1.249,2.352c0.07,0.123,0.089,0.259,0.059,0.407C3.98,3.204,3.916,3.327,3.813,3.428
		L3.242,3.993c-0.015,0.015-0.029,0.04-0.04,0.076C3.19,4.103,3.185,4.132,3.185,4.156c0.03,0.163,0.101,0.347,0.208,0.556
		C3.487,4.896,3.63,5.121,3.826,5.389c0.194,0.267,0.467,0.572,0.827,0.919c0.35,0.356,0.66,0.631,0.931,0.827
		c0.274,0.195,0.5,0.342,0.684,0.435c0.183,0.092,0.321,0.148,0.42,0.167l0.145,0.032c0.017,0,0.042-0.008,0.076-0.019
		C6.941,7.737,6.97,7.724,6.984,7.71l0.663-0.673c0.142-0.123,0.306-0.185,0.492-0.185c0.132,0,0.237,0.026,0.315,0.07h0.011
		l2.251,1.321C10.879,8.344,10.975,8.47,11.007,8.625"/>
</g>
</svg>
