<?xml version="1.0" encoding="utf-8"?>
<!-- Generator: Adobe Illustrator 16.0.0, SVG Export Plug-In . SVG Version: 6.00 Build 0)  -->
<!DOCTYPE svg PUBLIC "-//W3C//DTD SVG 1.1//EN" "http://www.w3.org/Graphics/SVG/1.1/DTD/svg11.dtd">
<svg version="1.1" id="Слой_1" xmlns="http://www.w3.org/2000/svg" xmlns:xlink="http://www.w3.org/1999/xlink" x="0px" y="0px"
	 width="29.59px" height="31.314px" viewBox="0 0 29.59 31.314" enable-background="new 0 0 29.59 31.314" xml:space="preserve">
<path fill="#DF5450" d="M18.629,27.205L18.629,27.205c0.003,0,0.006,0,0.01,0v1.995c0,1.164-0.974,2.115-2.167,2.115H2.167
	C0.975,31.314,0,30.363,0,29.199V2.113C0,0.95,0.975,0,2.167,0h14.306c1.192,0,2.167,0.95,2.167,2.113L18.627,3.99
	C24.75,4.485,29.59,9.497,29.59,15.597C29.59,21.698,24.75,26.71,18.629,27.205z M6.769,1.78c0,0.141,0.117,0.255,0.262,0.255h4.577
	c0.144,0,0.263-0.113,0.263-0.255c0-0.143-0.116-0.258-0.263-0.258H7.03C6.886,1.524,6.769,1.638,6.769,1.78z M10.403,29.199
	c0-0.585-0.486-1.055-1.084-1.055c-0.597,0-1.081,0.47-1.081,1.055c0,0.584,0.484,1.059,1.081,1.059
	C9.917,30.258,10.403,29.784,10.403,29.199z M26.651,15.598c0-4.845-4.039-8.787-9.001-8.787c-0.189,0-0.36,0.017-0.548,0.027V3.97
	c0.008,0-0.005,0,0-0.001V3.352H1.507V27.4H17.13v-0.171l-0.006-0.002c-6.341-0.269-11.419-5.374-11.419-11.629
	c0-0.066,0.006-0.133,0.011-0.199H3.914l3.209-3.131l3.208,3.131H8.654c-0.005,0.065-0.011,0.133-0.011,0.199
	c0,4.846,4.039,8.788,9.003,8.788C22.61,24.385,26.651,20.443,26.651,15.598z"/>
<text transform="matrix(1 0 0 1 10.6323 19.4023)" fill="#434343" font-family="'Istok-Bold'" font-size="11.9808">24</text>
</svg>
