<?xml version="1.0" encoding="utf-8"?>
<!-- Generator: Adobe Illustrator 16.0.0, SVG Export Plug-In . SVG Version: 6.00 Build 0)  -->
<!DOCTYPE svg PUBLIC "-//W3C//DTD SVG 1.1//EN" "http://www.w3.org/Graphics/SVG/1.1/DTD/svg11.dtd">
<svg version="1.1" id="Слой_1" xmlns="http://www.w3.org/2000/svg" xmlns:xlink="http://www.w3.org/1999/xlink" x="0px" y="0px"
	 width="32.998px" height="23.995px" viewBox="0 0 32.998 23.995" enable-background="new 0 0 32.998 23.995" xml:space="preserve">
<g>
	<path fill="#DF5450" d="M8.057,22.227c-0.354,0.521-0.218,1.236,0.302,1.593c0.52,0.356,1.228,0.222,1.581-0.304
		c0.176-0.26,1.957-2.888,3.688-5.452l-1.382-2.033C10.249,18.989,8.189,22.028,8.057,22.227z"/>
	<path fill="#DF5450" d="M11.285,2.074c0,1.148,0.922,2.079,2.061,2.079c1.137,0,2.06-0.931,2.06-2.079
		c0-1.146-0.922-2.074-2.06-2.074C12.207,0,11.285,0.928,11.285,2.074z"/>
	<path fill="#DF5450" d="M23.667,13.653h-1.61V12.82c0-0.224-0.18-0.406-0.404-0.406h-0.856c0.021-0.198-0.023-0.404-0.145-0.583
		c-0.153-0.224-4.334-6.354-4.334-6.354c-0.313-0.459-0.753-0.662-1.23-0.662h-3.252c-0.407,0-0.861,0.17-1.134,0.545
		c0,0-1.948,2.688-2.381,3.284C8.191,8.82,8.142,9.029,8.158,9.229c0,0.432-0.002,2.61-0.004,3.273c0,0.479,0.384,0.865,0.856,0.865
		c0.474,0.002,0.859-0.386,0.861-0.863c0-0.203,0-2.121,0.002-3.072c0.251-0.346,0.737-1.015,1.232-1.694v4.135
		c0,0.94,0.12,1.709,0.594,2.413c1.436,2.11,5.981,8.801,6.27,9.229c0.354,0.525,1.061,0.66,1.583,0.305
		c0.52-0.357,0.654-1.072,0.302-1.594c-0.087-0.13-1.055-1.554-2.291-3.371h6.104c0.29,0,0.525-0.236,0.525-0.529v-4.144
		C24.192,13.89,23.957,13.653,23.667,13.653z M18.05,12.82v0.833h-1.554c-0.29,0-0.525,0.236-0.525,0.529v2.333
		c-0.173-0.254-0.345-0.509-0.518-0.762V7.256c1.117,1.636,2.832,4.152,3.518,5.158h-0.517C18.231,12.414,18.05,12.596,18.05,12.82z
		 M21.25,13.653h-2.394v-0.426h2.394V13.653z"/>
</g>
</svg>
