<?xml version="1.0" encoding="utf-8"?>
<!-- Generator: Adobe Illustrator 16.0.0, SVG Export Plug-In . SVG Version: 6.00 Build 0)  -->
<!DOCTYPE svg PUBLIC "-//W3C//DTD SVG 1.1//EN" "http://www.w3.org/Graphics/SVG/1.1/DTD/svg11.dtd">
<svg version="1.1" id="Слой_1" xmlns="http://www.w3.org/2000/svg" xmlns:xlink="http://www.w3.org/1999/xlink" x="0px" y="0px"
	 width="12px" height="12px" viewBox="0 0 12 12" enable-background="new 0 0 12 12" xml:space="preserve">
<g>
	<g>
		<path fill-rule="evenodd" clip-rule="evenodd" fill="#FF1314" d="M6,0C2.687,0,0,2.687,0,6s2.687,6,6,6s6-2.687,6-6S9.313,0,6,0z
			 M6,10c-2.209,0-4-1.791-4-4s1.791-4,4-4s4,1.791,4,4S8.209,10,6,10z M6,3C5.448,3,5,3.448,5,4v2c0,0.552,0.448,1,1,1s1-0.448,1-1
			V4C7,3.448,6.552,3,6,3z"/>
	</g>
</g>
</svg>
