<?xml version="1.0" encoding="utf-8"?>
<!-- Generator: Adobe Illustrator 16.0.0, SVG Export Plug-In . SVG Version: 6.00 Build 0)  -->
<!DOCTYPE svg PUBLIC "-//W3C//DTD SVG 1.1//EN" "http://www.w3.org/Graphics/SVG/1.1/DTD/svg11.dtd">
<svg version="1.1" id="Слой_1" xmlns="http://www.w3.org/2000/svg" xmlns:xlink="http://www.w3.org/1999/xlink" x="0px" y="0px"
	 width="41px" height="41px" viewBox="0 0 41 41" enable-background="new 0 0 41 41" xml:space="preserve">
<path fill="#DF5450" d="M28.852,16.234c0.008,0.184,0.012,0.367,0.012,0.554C28.863,22.459,24.529,29,16.606,29
	c-2.435,0-4.697-0.71-6.604-1.93c0.338,0.039,0.682,0.06,1.027,0.06c2.021,0,3.876-0.685,5.35-1.836
	c-1.884-0.035-3.475-1.274-4.022-2.979c0.263,0.051,0.531,0.076,0.811,0.076c0.394,0,0.773-0.052,1.134-0.149
	c-1.969-0.396-3.455-2.13-3.455-4.208c0-0.018,0-0.036,0-0.054c0.581,0.321,1.245,0.515,1.952,0.536
	c-1.156-0.769-1.917-2.083-1.917-3.572c0-0.787,0.213-1.523,0.583-2.158c2.124,2.597,5.3,4.305,8.879,4.484
	c-0.072-0.314-0.111-0.641-0.111-0.979c0-2.369,1.928-4.29,4.309-4.29c1.237,0,2.358,0.521,3.144,1.354
	c0.979-0.192,1.903-0.55,2.735-1.041c-0.323,1.003-1.004,1.844-1.894,2.373c0.871-0.103,1.701-0.333,2.473-0.674
	C30.422,14.873,29.691,15.628,28.852,16.234z"/>
</svg>
