<?xml version="1.0" encoding="utf-8"?>
<!-- Generator: Adobe Illustrator 16.0.0, SVG Export Plug-In . SVG Version: 6.00 Build 0)  -->
<!DOCTYPE svg PUBLIC "-//W3C//DTD SVG 1.1//EN" "http://www.w3.org/Graphics/SVG/1.1/DTD/svg11.dtd">
<svg version="1.1" id="Слой_1" xmlns="http://www.w3.org/2000/svg" xmlns:xlink="http://www.w3.org/1999/xlink" x="0px" y="0px"
	 width="41px" height="41px" viewBox="0 0 41 41" enable-background="new 0 0 41 41" xml:space="preserve">
<g>
	<path fill="#DF5450" d="M29.721,25.941c-0.105,0.015-0.214,0.029-0.32,0.029c-1.053,0.002-2.104,0-3.154,0.004
		c-0.146,0-0.27-0.052-0.378-0.134c-0.22-0.17-0.446-0.335-0.647-0.524c-0.527-0.49-1.039-0.998-1.563-1.494
		c-0.162-0.154-0.336-0.297-0.508-0.443c-0.088-0.078-0.199-0.096-0.314-0.094c-0.154,0.004-0.281,0.068-0.341,0.203
		c-0.056,0.121-0.103,0.254-0.116,0.384c-0.025,0.235-0.027,0.474-0.031,0.708c-0.006,0.264-0.015,0.527-0.093,0.785
		c-0.036,0.113-0.085,0.229-0.147,0.33c-0.108,0.176-0.279,0.271-0.498,0.275c-0.917,0.021-1.836,0.032-2.753-0.023
		c-0.169-0.012-0.326-0.063-0.478-0.133c-0.855-0.396-1.607-0.924-2.26-1.58c-0.795-0.797-1.517-1.652-2.238-2.508
		c-0.971-1.154-1.811-2.39-2.565-3.675c-0.276-0.47-0.542-0.945-0.74-1.45c-0.098-0.249-0.098-0.499-0.024-0.75
		c0.021-0.075,0.059-0.147,0.102-0.213c0.063-0.096,0.158-0.149,0.282-0.151c0.044-0.001,0.088-0.002,0.132-0.002
		c0.954,0,1.907,0.004,2.86-0.003c0.188-0.001,0.333,0.059,0.46,0.179c0.234,0.222,0.417,0.479,0.582,0.749
		c0.179,0.292,0.357,0.587,0.515,0.89c0.347,0.668,0.772,1.29,1.222,1.897c0.22,0.296,0.457,0.58,0.685,0.869
		c0.106,0.136,0.253,0.187,0.422,0.19c0.165,0.005,0.232-0.058,0.238-0.213c0.002-0.037,0.001-0.074,0.001-0.111
		c0-1.016,0-2.029-0.001-3.044c0-0.078,0-0.158-0.008-0.236c-0.019-0.182-0.121-0.287-0.311-0.322
		c-0.086-0.016-0.174-0.022-0.262-0.033c-0.268-0.033-0.379-0.141-0.407-0.396c-0.042-0.383,0.153-0.682,0.535-0.816
		c0.164-0.058,0.334-0.07,0.507-0.07c0.85,0.001,1.7,0,2.549,0.001c0.172,0,0.345-0.009,0.516,0.006
		c0.18,0.017,0.359,0.038,0.535,0.087c0.372,0.102,0.586,0.34,0.629,0.707c0.012,0.088,0.014,0.176,0.014,0.264
		c0,0.616,0,1.232,0,1.848c0,0.653,0,1.307,0.002,1.96c0,0.063,0.006,0.131,0.024,0.191c0.06,0.198,0.29,0.264,0.481,0.14
		c0.565-0.368,0.938-0.881,1.223-1.451c0.265-0.526,0.492-1.069,0.74-1.604c0.199-0.424,0.402-0.845,0.609-1.265
		c0.051-0.104,0.127-0.198,0.195-0.293c0.063-0.086,0.146-0.123,0.262-0.123c1.235,0.003,2.467,0.003,3.701,0.002
		c0.301,0,0.541,0.115,0.729,0.332c0.066,0.076,0.095,0.167,0.111,0.266c0.074,0.459-0.094,0.857-0.324,1.243
		c-0.222,0.363-0.481,0.698-0.768,1.018c-0.59,0.658-1.169,1.325-1.674,2.045c-0.131,0.185-0.242,0.381-0.361,0.572
		c-0.088,0.141-0.076,0.273,0.033,0.398c0.223,0.252,0.439,0.513,0.674,0.754c0.557,0.576,1.127,1.138,1.688,1.709
		c0.181,0.186,0.343,0.384,0.508,0.578c0.056,0.063,0.097,0.14,0.148,0.205C30.77,25.113,30.248,25.877,29.721,25.941z"/>
</g>
</svg>
